<svg width="19" height="18" viewBox="0 0 19 18" fill="none" xmlns="http://www.w3.org/2000/svg">
<path d="M15.7363 2.25H12.6426V1.6875C12.6426 0.755508 11.8871 0 10.9551 0H8.70508C7.77309 0 7.01758 0.755508 7.01758 1.6875V2.25H3.92383C3.14719 2.25 2.51758 2.87961 2.51758 3.65625V4.78125C2.51758 5.09193 2.7694 5.34375 3.08008 5.34375H16.5801C16.8908 5.34375 17.1426 5.09193 17.1426 4.78125V3.65625C17.1426 2.87961 16.513 2.25 15.7363 2.25ZM8.14258 1.6875C8.14258 1.37742 8.395 1.125 8.70508 1.125H10.9551C11.2652 1.125 11.5176 1.37742 11.5176 1.6875V2.25H8.14258V1.6875Z" fill="#000"/>
<path d="M3.58593 6.46875C3.48556 6.46875 3.40558 6.55263 3.41036 6.6529L3.87442 16.3927C3.91731 17.2941 4.6577 18 5.55981 18H14.1021C15.0042 18 15.7446 17.2941 15.7875 16.3927L16.2515 6.6529C16.2563 6.55263 16.1763 6.46875 16.076 6.46875H3.58593ZM12.0809 7.875C12.0809 7.56422 12.3327 7.3125 12.6434 7.3125C12.9542 7.3125 13.2059 7.56422 13.2059 7.875V15.1875C13.2059 15.4983 12.9542 15.75 12.6434 15.75C12.3327 15.75 12.0809 15.4983 12.0809 15.1875V7.875ZM9.26845 7.875C9.26845 7.56422 9.52016 7.3125 9.83095 7.3125C10.1417 7.3125 10.3934 7.56422 10.3934 7.875V15.1875C10.3934 15.4983 10.1417 15.75 9.83095 15.75C9.52016 15.75 9.26845 15.4983 9.26845 15.1875V7.875ZM6.45595 7.875C6.45595 7.56422 6.70766 7.3125 7.01845 7.3125C7.32923 7.3125 7.58095 7.56422 7.58095 7.875V15.1875C7.58095 15.4983 7.32923 15.75 7.01845 15.75C6.70766 15.75 6.45595 15.4983 6.45595 15.1875V7.875Z" fill="#000"/>
</svg>
