<?xml version="1.0" encoding="utf-8"?>
<!-- Generator: Adobe Illustrator 23.0.0, SVG Export Plug-In . SVG Version: 6.00 Build 0)  -->
<svg version="1.1" id="Layer_1" xmlns="http://www.w3.org/2000/svg" xmlns:xlink="http://www.w3.org/1999/xlink" x="0px" y="0px"
	 viewBox="0 0 200 150" style="enable-background:new 0 0 200 150;" xml:space="preserve">
<style type="text/css">
	.st0{fill:#FFFFFF;}
</style>
<g>
	<g>
		<path class="st0" d="M91.8,48.1c0.6-3.9,1.4-7.7,2.5-11.3l0.2-0.7l0.6,0.5c0.2,0.1,14.7,9.8,32.5,13.9c1.3-2.5,2-4.2,2.4-5.1
			c-15-4.6-26.8-11.7-34-16.9c-6.1-4.5-10.1-8.3-11.7-9.8c-2,8.7-2.7,17.4-2.5,25.4C84.7,45.3,88.1,46.8,91.8,48.1z"/>
		<path class="st0" d="M128.2,51.6c-0.2,0-0.4-0.1-0.6-0.1c-0.2,0-0.4-0.1-0.6-0.1c-15.6-3.7-28.9-11.6-31.9-13.5
			c-0.9,3.4-1.7,7-2.2,10.7c5.5,1.8,11.8,3.4,18.4,4l0.6,0.1l-0.1,0.6c0,0.1-1.7,9.4-6.4,19.9c-2.9,6.3-6.6,11.5-9.5,14.9
			c-0.6,0.8-1.3,1.5-1.7,2c-0.2,0.2-0.3,0.3-0.5,0.5c0.5-0.2,0.9-0.4,1.5-0.6c5.3-2,15.9-6.7,26-15.8c9.5-8.6,15-18.2,16.5-21
			C134.6,52.8,131.4,52.2,128.2,51.6z"/>
		<path class="st0" d="M110.6,53.5c-6.3-0.6-12.4-2.1-17.7-4c-0.2-0.1-0.4-0.1-0.6-0.2c-0.2-0.1-0.4-0.1-0.6-0.2
			c-3.7-1.2-7-2.6-9.8-4c-0.2-0.1-0.4-0.2-0.6-0.3c-0.2-0.1-0.4-0.2-0.6-0.3C75,41.9,70.9,39.2,69,38c1.1,15.6,7.2,29.1,12.1,37.7
			c3.2,5.6,6.4,9.9,8.6,12.6c0.5,0.6,0.9,1.1,1.3,1.6l0,0c0.3,0.3,0.5,0.6,0.6,0.7c0,0.1,0.1,0.1,0.1,0.2c0.1-0.1,0.1-0.1,0.2-0.2
			c0.1-0.1,0.2-0.2,0.3-0.3c2.2-2.3,8.1-9,12.1-17.8C108.4,63.7,110.1,55.7,110.6,53.5z"/>
	</g>
	<g>
		<g>
			<path class="st0" d="M23.1,111l8.9,26.3l8.9-26.4c0.9-2.8,3.5-4.6,6.3-4.6h3.5L37,145.4h-9.9l-13.8-39.1h3.5
				C19.6,106.4,22.2,108.2,23.1,111z"/>
			<path class="st0" d="M87.9,145.4h-4.1c-2.3,0-4.4-1.1-5.6-3l-15.4-23.5v21.6c0,2.7-2.2,4.9-4.9,4.9h-2.9v-39.1h4.1
				c2.3,0,4.4,1.2,5.6,3L80.1,133v-21.9c0-2.7,2.2-4.9,4.9-4.9h2.9C87.9,106.3,87.9,145.4,87.9,145.4z"/>
			<path class="st0" d="M99.5,112.6v10.1H115v6.3H99.5v10.1h10.6c2.8,0,4.9,2.2,4.9,4.9v1.4H91.7v-39.1H115v1.3c0,2.8-2.2,5-5,5
				L99.5,112.6L99.5,112.6z"/>
			<path class="st0" d="M186.8,106.4v1.3c0,2.8-2.2,4.9-4.9,4.9h-5.9v32.9h-7.8v-32.8h-5.8c-2.8,0-4.9-2.2-4.9-4.9v-1.3L186.8,106.4
				L186.8,106.4z"/>
			<path class="st0" d="M144,143.1l-10.9-17.2l11.1-17.3c0.9-1.4,2.5-2.2,4.1-2.2h5.1l-12.6,19.5l12.3,19.5h-5.1
				C146.4,145.4,144.9,144.5,144,143.1z"/>
			<path class="st0" d="M124.4,145.4h-5.1l12.3-19.5L119,106.5h5.1c1.7,0,3.2,0.8,4.1,2.2l11.1,17.3l-10.9,17.1
				C127.6,144.5,126,145.4,124.4,145.4z"/>
		</g>
	</g>
</g>
</svg>
