<svg width="8" height="14" viewBox="0 0 8 14" fill="none" xmlns="http://www.w3.org/2000/svg">
<g clip-path="url(#clip0_832_10000)">
<path d="M0 9.12394C0.0137443 9.09079 0.0258732 9.05764 0.042043 9.0253C0.0710834 8.9593 0.119119 8.90345 0.180027 8.86486C0.240936 8.82627 0.311955 8.8067 0.384032 8.80863H7.55048C7.60239 8.8063 7.65441 8.80928 7.70571 8.81752C7.7673 8.83185 7.82439 8.86116 7.87193 8.90285C7.91946 8.94454 7.95597 8.99732 7.97821 9.05651C8.00044 9.1157 8.00772 9.17947 7.99939 9.24214C7.99107 9.30482 7.96739 9.36447 7.93047 9.4158C7.90595 9.44707 7.87891 9.47627 7.84962 9.50312C6.67192 10.6819 5.49369 11.8601 4.31491 13.0378C4.10874 13.244 3.8953 13.2448 3.68914 13.0378L0.19323 9.54273C0.106612 9.46795 0.0406368 9.37219 0.00161856 9.26462L0 9.12394Z" fill="#4D4D4D"/>
</g>
<g clip-path="url(#clip1_832_10000)">
<path d="M8 4.87606C7.98626 4.90921 7.97413 4.94236 7.95796 4.9747C7.92892 5.0407 7.88088 5.09655 7.81997 5.13514C7.75906 5.17373 7.68805 5.1933 7.61597 5.19137L0.449518 5.19137C0.397607 5.1937 0.345593 5.19072 0.294287 5.18248C0.232703 5.16815 0.17561 5.13884 0.128074 5.09715C0.0805388 5.05546 0.0440312 5.00268 0.0217948 4.94349C-0.000441524 4.8843 -0.00771901 4.82053 0.000608005 4.75785C0.00893502 4.69518 0.0326086 4.63553 0.0695277 4.5842C0.0940481 4.55293 0.121088 4.52373 0.150376 4.49688C1.32808 3.31811 2.50631 2.13987 3.68509 0.96217C3.89126 0.756006 4.1047 0.755197 4.31086 0.96217L7.80677 4.45727C7.89339 4.53205 7.95936 4.62781 7.99838 4.73538L8 4.87606Z" fill="#4D4D4D"/>
</g>
<defs>
<clipPath id="clip0_832_10000">
<rect width="8" height="4.38525" fill="white" transform="translate(0 8.80737)"/>
</clipPath>
<clipPath id="clip1_832_10000">
<rect width="8" height="4.38525" fill="white" transform="translate(8 5.19263) rotate(-180)"/>
</clipPath>
</defs>
</svg>
